# generated from PmQm by Jehee Lee
:FULLY-SPECIFIED
:DEGREES
207
root 53.4083 39.5204 -48.977 0.997589 8.00293 -0.940582
RightUpLeg -0.0261531 10.2256 -1.28128
RightLeg 15.122 25.2727 4.95337
RightFoot -15.2099 -0.168771 -1.98591
RightToes -0.000541893 -0.000659172 -0.000493268
Spine 0.25425 -1.37026 1.75961
Spine1 0.434088 -2.80077 4.0572
HEad 20.6094 -28.0176 3.14992
LeftShoulder1 -3.88251e-019 -0 -3.92111e-022
LeftArm -34.3441 5.09798 -86.312
LeftForeArm 39.3716 1.86036 0.539712
LeftHand -1.21446 -2.60685 17.7622
RightShoulder 7.45443e-017 -2.42657e-020 1.96277e-018
RightArm -29.5717 -15.5395 69.2224
RightForeArm 30.1018 0.99176 1.52783
RightHand -1.12307 8.69263 -9.60024
LeftUpLeg -13.1312 4.36642 6.72321
LeftLeg 10.4694 -10.4139 -1.16758
LeftFoot -0.304258 0.757338 -7.81489
LeftToes 3.91355e-005 3.11907e-005 -4.10385e-006
208
root 54.352 39.5724 -48.5278 2.11343 4.95319 0.0951538
RightUpLeg -2.30105 14.4588 -4.13278
RightLeg 17.8166 20.1687 6.35933
RightFoot -14.7522 -0.0922404 0.273424
RightToes -0.000541893 -0.000659172 -0.000493268
Spine 0.138676 -1.13377 1.15895
Spine1 0.206498 -2.32194 3.23714
HEad 20.8937 -28.0599 3.86962
LeftShoulder1 -3.88251e-019 -0 -3.92111e-022
LeftArm -33.8228 5.22015 -85.2225
LeftForeArm 37.4277 1.94419 0.204289
LeftHand -1.21317 -2.9095 17.1176
RightShoulder 7.45443e-017 -2.42657e-020 1.96277e-018
RightArm -30.2422 -16.8946 68.9712
RightForeArm 27.8719 0.771863 0.693872
RightHand -1.18166 8.39134 -10.2833
LeftUpLeg -12.6484 3.86976 4.7619
LeftLeg 10.5514 -6.76886 -0.937813
LeftFoot -1.27175 0.581905 -6.51897
LeftToes 3.91355e-005 3.11907e-005 -4.10385e-006
209
root 55.1865 39.5898 -48.1455 2.62195 1.04079 0.406158
RightUpLeg -4.99626 14.3587 -5.91064
RightLeg 21.7173 16.7433 7.04258
RightFoot -13.3746 -0.0190408 4.06741
RightToes -0.000541893 -0.000659172 -0.000493268
Spine 0.325566 -0.982282 0.768395
Spine1 0.577442 -2.02675 2.85815
HEad 20.3671 -27.0054 3.98508
LeftShoulder1 -3.88251e-019 -0 -3.92111e-022
LeftArm -34.0591 5.2222 -83.9947
LeftForeArm 35.8228 1.97855 0.281345
LeftHand -1.25195 -3.05419 17.3647
RightShoulder 7.45443e-017 -2.42657e-020 1.96277e-018
RightArm -29.7712 -17.4376 68.3468
RightForeArm 26.293 1.66645 1.62437
RightHand -1.09384 8.53684 -9.45825
LeftUpLeg -11.8544 3.54904 3.53878
LeftLeg 10.8092 -2.59009 -0.310582
LeftFoot -2.32107 0.432825 -5.30726
LeftToes 3.91355e-005 3.11907e-005 -4.10385e-006
210
root 55.8611 39.5749 -47.8107 2.90483 -2.69025 0.649399
RightUpLeg -7.80668 11.5006 -6.81148
RightLeg 25.9308 12.4816 6.32348
RightFoot -11.5905 -0.0631956 7.16268
RightToes -0.000541893 -0.000659172 -0.000493268
Spine 0.630823 -1.10638 0.382204
Spine1 1.17779 -2.28715 2.51658
HEad 19.2647 -25.4061 4.0064
LeftShoulder1 -3.88251e-019 -0 -3.92111e-022
LeftArm -34.2239 4.87018 -82.7332
LeftForeArm 34.1182 1.96587 0.851566
LeftHand -1.10664 -3.16526 15.2037
RightShoulder 7.45443e-017 -2.42657e-020 1.96277e-018
RightArm -28.8539 -17.4995 67.6028
RightForeArm 26.6058 3.88043 3.82266
RightHand -0.966907 8.67562 -8.33161
LeftUpLeg -11.1984 3.3841 2.53739
LeftLeg 11.1732 1.28452 0.218744
LeftFoot -3.57338 0.324348 -4.46083
LeftToes 3.91355e-005 3.11907e-005 -4.10385e-006
211
root 56.3784 39.5759 -47.52 3.38107 -5.88721 0.724503
RightUpLeg -10.7478 8.16989 -6.58533
RightLeg 29.7132 6.16387 3.55777
RightFoot -9.22003 -0.209114 7.99947
RightToes -0.000541893 -0.000659172 -0.000493268
Spine 0.853426 -1.45884 -0.003544890001
Spine1 1.60905 -2.98912 2.20654
HEad 18.4103 -24.0138 4.38986
LeftShoulder1 -3.88251e-019 -0 -3.92111e-022
LeftArm -33.6022 4.06035 -81.4139
LeftForeArm 31.6406 1.9845 1.37712
LeftHand -1.18246 -3.04002 16.4534
RightShoulder 7.45443e-017 -2.42657e-020 1.96277e-018
RightArm -27.9801 -17.5192 67.526
RightForeArm 27.2442 6.87367 6.45176
RightHand -1.01468 8.87106 -8.60918
LeftUpLeg -10.7872 3.08323 1.79995
LeftLeg 11.107 4.7076 0.772056
LeftFoot -4.26345 0.252802 -3.67642
LeftToes 3.91355e-005 3.11907e-005 -4.10385e-006
